HIERARCHY
ROOT Hips
{
	OFFSET 0.000000 35.082581 0.000000
	CHANNELS 6 Xposition Yposition Zposition Xrotation Yrotation Zrotation 
	JOINT Spine
	{
		OFFSET 0.000000 6.876099 0.125700
		CHANNELS 3 Xrotation Yrotation Zrotation
		JOINT Spine1
		{
			OFFSET 0.000000 5.730043 0.104720
			CHANNELS 3 Xrotation Yrotation Zrotation
			JOINT Spine1_split
			{
				OFFSET 0.000000 5.730043 0.104720
				CHANNELS 3 Xrotation Yrotation Zrotation
				JOINT Spine2
				{
					OFFSET 0.000000 5.730043 0.104720
					CHANNELS 3 Xrotation Yrotation Zrotation
					JOINT Neck
					{
						OFFSET 0.000000 10.314075 0.188496
						CHANNELS 3 Xrotation Yrotation Zrotation
						JOINT Head
						{
							OFFSET 0.000000 7.643700 -2.377400
							CHANNELS 3 Xrotation Yrotation Zrotation
							JOINT HeadTop_End
							{
								OFFSET 0.000000 43.788605 -13.619600
								CHANNELS 3 Xrotation Yrotation Zrotation
								End Site
								{
									OFFSET 0.000000 0.000000 0.000000
								}
							}
						}
					}
					JOINT LeftShoulder
					{
						OFFSET 2.196100 4.412489 0.087492
						CHANNELS 3 Xrotation Yrotation Zrotation
						JOINT LeftShoulder_split
						{
							OFFSET 2.196100 4.412489 0.087492
							CHANNELS 3 Xrotation Yrotation Zrotation
							JOINT LeftArm
							{
								OFFSET 8.771219 -2.981674 -0.026999
								CHANNELS 3 Xrotation Yrotation Zrotation
								JOINT LeftForeArm
								{
									OFFSET 8.512804 0.000000 -0.000000
									CHANNELS 3 Xrotation Yrotation Zrotation
									JOINT LeftHand
									{
										OFFSET 18.484802 0.000000 -0.000000
										CHANNELS 3 Xrotation Yrotation Zrotation
										JOINT LeftHandThumb1
										{
											OFFSET 2.499420 -1.158070 2.653252
											CHANNELS 3 Xrotation Yrotation Zrotation
											JOINT LeftHandThumb2
											{
												OFFSET 2.370079 -1.368366 1.368366
												CHANNELS 3 Xrotation Yrotation Zrotation
												JOINT LeftHandThumb3
												{
													OFFSET 2.676727 -1.545410 1.545409
													CHANNELS 3 Xrotation Yrotation Zrotation
													JOINT LeftHandThumb4
													{
														OFFSET 1.692226 -0.977005 0.977007
														CHANNELS 3 Xrotation Yrotation Zrotation
														End Site
														{
															OFFSET 0.000000 0.000000 0.000000
														}
													}
												}
											}
										}
										JOINT LeftHandIndex1
										{
											OFFSET 7.924831 -0.457527 2.345128
											CHANNELS 3 Xrotation Yrotation Zrotation
											JOINT LeftHandIndex2
											{
												OFFSET 3.643303 0.000000 0.000000
												CHANNELS 3 Xrotation Yrotation Zrotation
												JOINT LeftHandIndex3
												{
													OFFSET 3.810799 0.000000 0.000000
													CHANNELS 3 Xrotation Yrotation Zrotation
													JOINT LeftHandIndex4
													{
														OFFSET 2.403702 0.000000 0.000000
														CHANNELS 3 Xrotation Yrotation Zrotation
														End Site
														{
															OFFSET 0.000000 0.000000 0.000000
														}
													}
												}
											}
										}
										JOINT LeftHandMiddle1
										{
											OFFSET 8.563995 0.000000 -0.000000
											CHANNELS 3 Xrotation Yrotation Zrotation
											JOINT LeftHandMiddle2
											{
												OFFSET 3.861618 0.000000 0.000000
												CHANNELS 3 Xrotation Yrotation Zrotation
												JOINT LeftHandMiddle3
												{
													OFFSET 3.701603 0.000000 0.000000
													CHANNELS 3 Xrotation Yrotation Zrotation
													JOINT LeftHandMiddle4
													{
														OFFSET 2.322544 0.000000 0.000000
														CHANNELS 3 Xrotation Yrotation Zrotation
														End Site
														{
															OFFSET 0.000000 0.000000 0.000000
														}
													}
												}
											}
										}
										JOINT LeftHandRing1
										{
											OFFSET 8.426460 -0.424637 -3.286992
											CHANNELS 3 Xrotation Yrotation Zrotation
											JOINT LeftHandRing2
											{
												OFFSET 3.126408 0.000000 0.000000
												CHANNELS 3 Xrotation Yrotation Zrotation
												JOINT LeftHandRing3
												{
													OFFSET 3.085026 0.000000 0.000000
													CHANNELS 3 Xrotation Yrotation Zrotation
													JOINT LeftHandRing4
													{
														OFFSET 1.644005 0.000000 0.000000
														CHANNELS 3 Xrotation Yrotation Zrotation
														End Site
														{
															OFFSET 0.000000 0.000000 0.000000
														}
													}
												}
											}
										}
									}
								}
							}
						}
					}
					JOINT RightShoulder
					{
						OFFSET -2.196100 4.412496 0.070690
						CHANNELS 3 Xrotation Yrotation Zrotation
						JOINT RightShoulder_split
						{
							OFFSET -2.196100 4.412496 0.070690
							CHANNELS 3 Xrotation Yrotation Zrotation
							JOINT RightArm
							{
								OFFSET -8.771282 -2.981682 -0.094208
								CHANNELS 3 Xrotation Yrotation Zrotation
								JOINT RightForeArm
								{
									OFFSET -8.494598 0.000000 0.000000
									CHANNELS 3 Xrotation Yrotation Zrotation
									JOINT RightHand
									{
										OFFSET -18.483803 0.000000 0.000001
										CHANNELS 3 Xrotation Yrotation Zrotation
										JOINT RightHandThumb1
										{
											OFFSET -2.527351 -1.008072 2.575253
											CHANNELS 3 Xrotation Yrotation Zrotation
											JOINT RightHandThumb2
											{
												OFFSET -2.321518 -1.340328 1.340329
												CHANNELS 3 Xrotation Yrotation Zrotation
												JOINT RightHandThumb3
												{
													OFFSET -2.657753 -1.534454 1.534455
													CHANNELS 3 Xrotation Yrotation Zrotation
													JOINT RightHandThumb4
													{
														OFFSET -1.807510 -1.043568 1.043567
														CHANNELS 3 Xrotation Yrotation Zrotation
														End Site
														{
															OFFSET 0.000000 0.000000 0.000000
														}
													}
												}
											}
										}
										JOINT RightHandIndex1
										{
											OFFSET -8.811420 0.015533 2.887987
											CHANNELS 3 Xrotation Yrotation Zrotation
											JOINT RightHandIndex2
											{
												OFFSET -3.537502 0.000000 0.000000
												CHANNELS 3 Xrotation Yrotation Zrotation
												JOINT RightHandIndex3
												{
													OFFSET -3.356201 0.000000 0.000000
													CHANNELS 3 Xrotation Yrotation Zrotation
													JOINT RightHandIndex4
													{
														OFFSET -1.933098 0.000000 0.000000
														CHANNELS 3 Xrotation Yrotation Zrotation
														End Site
														{
															OFFSET 0.000000 0.000000 0.000000
														}
													}
												}
											}
										}
										JOINT RightHandMiddle1
										{
											OFFSET -8.178135 0.000000 0.000000
											CHANNELS 3 Xrotation Yrotation Zrotation
											JOINT RightHandMiddle2
											{
												OFFSET -3.901302 0.000000 0.000000
												CHANNELS 3 Xrotation Yrotation Zrotation
												JOINT RightHandMiddle3
												{
													OFFSET -3.909599 0.000000 0.000000
													CHANNELS 3 Xrotation Yrotation Zrotation
													JOINT RightHandMiddle4
													{
														OFFSET -2.376003 0.000000 0.000000
														CHANNELS 3 Xrotation Yrotation Zrotation
														End Site
														{
															OFFSET 0.000000 0.000000 0.000000
														}
													}
												}
											}
										}
										JOINT RightHandRing1
										{
											OFFSET -7.559013 0.014137 -2.865403
											CHANNELS 3 Xrotation Yrotation Zrotation
											JOINT RightHandRing2
											{
												OFFSET -3.449306 0.000000 0.000000
												CHANNELS 3 Xrotation Yrotation Zrotation
												JOINT RightHandRing3
												{
													OFFSET -3.362106 0.000000 0.000000
													CHANNELS 3 Xrotation Yrotation Zrotation
													JOINT RightHandRing4
													{
														OFFSET -2.076401 0.000000 0.000000
														CHANNELS 3 Xrotation Yrotation Zrotation
														End Site
														{
															OFFSET 0.000000 0.000000 0.000000
														}
													}
												}
											}
										}
									}
								}
							}
						}
					}
				}
			}
		}
	}
	JOINT LeftUpLeg
	{
		OFFSET 10.205400 -3.823500 0.155100
		CHANNELS 3 Xrotation Yrotation Zrotation
		JOINT LeftLeg
		{
			OFFSET 0.708757 -12.982077 0.567790
			CHANNELS 3 Xrotation Yrotation Zrotation
			JOINT LeftFoot
			{
				OFFSET -0.708756 -10.717838 -2.184338
				CHANNELS 3 Xrotation Yrotation Zrotation
				JOINT LeftToeBase
				{
					OFFSET 0.108149 -7.191104 7.560241
					CHANNELS 3 Xrotation Yrotation Zrotation
					JOINT LeftToe_End
					{
						OFFSET 0.070230 0.081724 4.490308
						CHANNELS 3 Xrotation Yrotation Zrotation
						End Site
						{
							OFFSET 0.000000 0.000000 0.000000
						}
					}
				}
			}
		}
	}
	JOINT RightUpLeg
	{
		OFFSET -10.205400 -3.823500 0.005500
		CHANNELS 3 Xrotation Yrotation Zrotation
		JOINT RightLeg
		{
			OFFSET -0.708756 -12.982134 0.610632
			CHANNELS 3 Xrotation Yrotation Zrotation
			JOINT RightFoot
			{
				OFFSET 0.708754 -10.717769 -1.945823
				CHANNELS 3 Xrotation Yrotation Zrotation
				JOINT RightToeBase
				{
					OFFSET -0.108140 -7.191069 7.372968
					CHANNELS 3 Xrotation Yrotation Zrotation
					JOINT RightToe_End
					{
						OFFSET -0.070227 0.081735 4.479403
						CHANNELS 3 Xrotation Yrotation Zrotation
						End Site
						{
							OFFSET 0.000000 0.000000 0.000000
						}
					}
				}
			}
		}
	}
}
MOTION
Frames: 6
Frame Time: 0.016667
2.046592 22.392010 54.070587 8.349193 -16.751251 0.862571 2.430678 -7.274345 1.865711 4.820221 -8.149183 2.085947 0.000000 0.000000 0.000000 4.820148 -8.149119 2.085943 9.532191 2.585891 14.901490 -2.611324 9.939550 -20.211638 -0.000001 -0.000003 -0.000000 -4.481872 -16.524630 -19.193545 0.000000 0.000000 0.000000 -50.218259 -13.065759 -29.545336 -9.513734 -45.265118 18.313320 -90.641309 -9.142724 11.811276 18.604756 9.201146 -20.335710 9.366535 23.517111 3.907232 15.631113 30.652205 0.950011 -0.000003 -0.000003 -0.000001 5.062916 7.259540 -60.393509 0.009017 -4.396037 -76.234747 -0.014934 1.943560 -28.702791 0.000001 0.000001 -0.000001 -0.063977 4.758038 -60.986834 -0.080429 -4.896938 -84.974356 -0.077675 1.572472 -47.862701 0.000001 -0.000000 -0.000000 -0.034406 -0.056987 -61.362297 -0.169935 -1.351954 -91.625383 -0.058892 1.209369 -28.344995 0.000002 0.000001 0.000000 0.026771 -1.767833 1.230372 0.000000 0.000000 0.000000 -18.293057 31.587320 8.179667 40.535189 8.128190 -4.683268 -43.424727 -46.363727 -11.839845 15.959782 -4.187794 29.032207 -14.791948 -41.235508 -16.515527 1.538928 -36.186510 -16.491857 0.000003 0.000002 0.000001 5.358208 -4.863567 67.585057 0.006272 4.394810 68.693425 -0.015222 -1.944177 51.003779 -0.000000 0.000002 0.000001 -0.076808 -4.752198 70.834908 -0.076427 4.897896 82.216360 -0.094643 -1.559164 59.800321 0.000002 0.000001 0.000001 -1.164524 -6.475313 73.357495 -0.172069 1.351237 92.834381 -0.068398 -1.195403 42.966278 -0.000003 0.000001 -0.000001 68.092984 31.681846 -5.908076 -13.619139 21.324513 4.786515 -15.741453 -1.099346 -42.924174 -32.294821 0.678171 -9.597732 -0.000001 -0.000002 -0.000001 -90.871569 -3.364786 -7.919503 51.069113 -0.657841 -7.517801 30.776819 10.552330 3.654612 -2.924013 2.984570 1.673384 -0.000001 0.000000 -0.000000 
1.918914 22.609753 54.727547 10.246070 -15.951980 0.244118 2.466148 -8.124023 2.259612 4.899762 -10.154799 2.662431 0.000000 0.000000 0.000000 4.899740 -10.154737 2.662414 8.502562 4.160265 15.381248 -1.540121 11.907267 -20.331216 0.000002 0.000001 -0.000001 -5.170245 -18.664291 -18.158312 0.000000 0.000000 0.000000 -46.432821 -18.052731 -34.485622 -9.204831 -38.217063 16.317097 -98.519980 2.929857 8.071466 18.604751 9.201148 -20.335710 9.366541 23.517108 3.907233 15.631124 30.652202 0.950009 -0.000001 -0.000001 -0.000002 5.062915 7.259540 -60.393509 0.009017 -4.396039 -76.234747 -0.014934 1.943559 -28.702787 -0.000001 0.000001 -0.000002 -0.063977 4.758038 -60.986841 -0.080431 -4.896933 -84.974356 -0.077674 1.572473 -47.862697 -0.000001 0.000002 -0.000000 -0.034409 -0.056986 -61.362303 -0.169938 -1.351958 -91.625383 -0.058890 1.209367 -28.345000 -0.000001 -0.000001 -0.000000 0.248742 -2.144193 4.457753 0.000000 0.000000 0.000000 -14.470985 21.706643 4.671662 37.782253 8.308576 -4.381102 -41.885152 -47.673665 -10.025598 15.959784 -4.187794 29.032201 -14.791956 -41.235505 -16.515525 1.538926 -36.186506 -16.491855 0.000005 0.000001 0.000002 5.358208 -4.863571 67.585057 0.006269 4.394812 68.693425 -0.015222 -1.944179 51.003779 -0.000000 -0.000001 -0.000000 -0.076808 -4.752197 70.834908 -0.076426 4.897896 82.216360 -0.094640 -1.559162 59.800328 0.000001 0.000001 -0.000000 -1.164524 -6.475316 73.357495 -0.172067 1.351236 92.834381 -0.068397 -1.195408 42.966275 0.000000 -0.000001 0.000000 66.152493 33.805226 -6.371668 -14.539128 22.168316 7.610789 -13.092901 -1.775994 -44.464224 -34.767060 -1.082504 -11.336197 0.000001 -0.000001 0.000000 -91.939626 -4.520210 -8.739408 54.164886 0.322835 -7.658467 26.869677 9.372406 4.620152 -2.924069 2.984588 1.673407 0.000000 0.000000 -0.000000 
1.810355 22.879349 55.465237 12.012360 -15.097319 -0.393138 2.498106 -8.799922 2.539863 4.960988 -11.924866 3.021996 0.000000 0.000000 0.000000 4.961006 -11.924954 3.022033 7.327445 5.709604 15.847442 -0.541796 13.761539 -20.423753 0.000000 0.000000 -0.000000 -5.400972 -20.399531 -16.650065 0.000000 0.000000 0.000000 -43.348462 -23.388161 -38.897910 -9.093633 -31.903848 14.184703 -106.152416 14.962515 7.623581 18.604756 9.201146 -20.335710 9.366536 23.517110 3.907229 15.631124 30.652209 0.950007 -0.000004 0.000003 -0.000003 5.062913 7.259541 -60.393503 0.009019 -4.396039 -76.234747 -0.014930 1.943560 -28.702791 -0.000001 0.000002 -0.000003 -0.063981 4.758036 -60.986841 -0.080426 -4.896940 -84.974363 -0.077669 1.572476 -47.862694 0.000000 0.000001 -0.000000 -0.034411 -0.056985 -61.362297 -0.169936 -1.351952 -91.625376 -0.058892 1.209368 -28.345005 0.000000 -0.000004 0.000001 0.440956 -2.570699 6.867735 0.000000 0.000000 0.000000 -12.839513 16.555912 3.599490 34.933641 8.728761 -3.601184 -39.383653 -54.979942 -8.524762 15.959784 -4.187791 29.032211 -14.791958 -41.235505 -16.515527 1.538924 -36.186510 -16.491855 -0.000002 0.000005 0.000002 5.358207 -4.863572 67.585057 0.006270 4.394810 68.693425 -0.015222 -1.944180 51.003772 0.000001 -0.000000 -0.000000 -0.076807 -4.752198 70.834908 -0.076427 4.897896 82.216367 -0.094640 -1.559164 59.800321 -0.000001 0.000000 -0.000001 -1.164523 -6.475316 73.357495 -0.172066 1.351237 92.834381 -0.068396 -1.195406 42.966271 -0.000000 0.000000 -0.000001 64.020483 35.817591 -5.373651 -14.655846 23.386112 7.753707 -9.156950 -3.335890 -44.554331 -38.719140 -3.278297 -12.999021 0.000001 -0.000001 -0.000000 -92.458830 -5.217158 -9.514696 57.300540 1.801428 -7.749603 22.620164 7.409291 6.051161 -2.924096 2.984604 1.673428 -0.000000 -0.000000 -0.000000 
1.811247 23.034870 56.103939 13.094178 -15.392245 -1.002980 2.526502 -9.499750 2.767269 5.005444 -13.331993 3.278267 0.000000 0.000000 0.000000 5.005465 -13.331915 3.278246 6.051133 7.224991 16.300545 0.372251 15.500513 -20.487829 -0.000001 0.000000 -0.000000 -5.462548 -21.822314 -15.277262 0.000000 0.000000 0.000000 -41.539851 -28.186705 -42.662673 -9.093019 -26.803769 12.045795 -113.642723 25.261578 10.199990 18.604754 9.201146 -20.335708 9.366532 23.517111 3.907233 15.631110 30.652209 0.950005 -0.000002 0.000003 0.000002 5.062914 7.259538 -60.393509 0.009016 -4.396036 -76.234747 -0.014929 1.943560 -28.702787 0.000001 -0.000001 0.000001 -0.063979 4.758037 -60.986841 -0.080427 -4.896940 -84.974356 -0.077674 1.572470 -47.862701 0.000000 0.000001 0.000002 -0.034410 -0.056986 -61.362303 -0.169936 -1.351954 -91.625383 -0.058891 1.209367 -28.344996 0.000001 -0.000002 -0.000002 0.571907 -3.041697 8.393562 0.000000 0.000000 0.000000 -12.235273 14.739599 3.552621 31.986927 9.211522 -2.529648 -37.140257 -64.951192 -8.983986 15.959782 -4.187796 29.032201 -14.791955 -41.235505 -16.515525 1.538932 -36.186503 -16.491857 0.000000 -0.000000 0.000001 5.358209 -4.863570 67.585057 0.006270 4.394809 68.693425 -0.015226 -1.944179 51.003772 -0.000000 -0.000002 -0.000000 -0.076808 -4.752195 70.834908 -0.076426 4.897896 82.216360 -0.094641 -1.559166 59.800328 -0.000001 -0.000000 -0.000002 -1.164523 -6.475319 73.357495 -0.172068 1.351237 92.834381 -0.068397 -1.195405 42.966271 0.000001 0.000001 0.000001 62.988715 37.346928 -4.433935 -14.611822 24.149758 7.699367 -3.578235 -5.394068 -45.569509 -42.693569 -5.484895 -12.706070 0.000001 0.000000 -0.000000 -92.201598 -5.562549 -9.329260 58.652050 1.780930 -7.835731 20.018794 7.149115 6.949526 -2.924143 2.984622 1.673450 0.000000 0.000002 0.000000 
1.867466 23.095551 56.799873 14.348300 -17.209244 -1.584843 2.549750 -10.131681 2.966653 5.020473 -14.261181 3.429290 0.000000 0.000000 0.000000 5.020483 -14.261204 3.429305 4.691633 8.689906 16.737250 1.217203 17.122297 -20.516560 0.000002 0.000001 -0.000000 -5.471207 -22.929553 -14.228713 0.000000 0.000000 0.000000 -41.478188 -31.387707 -45.804201 -9.131511 -23.397645 9.993897 -120.113494 32.475951 14.571686 18.604756 9.201149 -20.335708 9.366535 23.517110 3.907233 15.631118 30.652212 0.950004 -0.000003 -0.000000 -0.000002 5.062916 7.259538 -60.393509 0.009016 -4.396038 -76.234747 -0.014934 1.943558 -28.702787 0.000001 -0.000001 -0.000001 -0.063981 4.758038 -60.986834 -0.080431 -4.896939 -84.974356 -0.077676 1.572473 -47.862697 -0.000003 0.000001 0.000001 -0.034409 -0.056986 -61.362297 -0.169938 -1.351953 -91.625383 -0.058892 1.209370 -28.344996 0.000001 0.000001 0.000000 0.633981 -3.524480 9.224353 0.000000 0.000000 0.000000 -11.604643 13.355089 3.496329 28.949405 9.599963 -1.419282 -39.012377 -72.336416 -13.555486 15.959782 -4.187799 29.032201 -14.791951 -41.235505 -16.515527 1.538931 -36.186510 -16.491854 -0.000000 -0.000000 -0.000000 5.358208 -4.863569 67.585057 0.006269 4.394810 68.693425 -0.015221 -1.944181 51.003782 0.000001 -0.000000 -0.000000 -0.076808 -4.752197 70.834908 -0.076423 4.897897 82.216360 -0.094641 -1.559163 59.800328 0.000000 -0.000001 0.000000 -1.164524 -6.475314 73.357495 -0.172068 1.351237 92.834381 -0.068398 -1.195406 42.966271 0.000001 0.000001 -0.000001 59.394649 38.444130 -1.927686 -9.032043 23.903043 7.167515 1.099767 -6.337546 -46.722800 -45.468330 -7.468463 -11.579703 0.000000 -0.000001 -0.000001 -91.693316 -5.525397 -7.524417 58.391847 1.430629 -7.824036 18.737092 7.163463 8.078511 -2.924184 2.984648 1.673472 0.000000 0.000001 0.000000 
1.973646 23.040977 57.643501 15.367313 -20.906567 -2.055076 2.546283 -10.567157 3.022817 4.996716 -14.597188 3.473516 0.000000 0.000000 0.000000 4.996703 -14.597163 3.473526 3.275434 10.090221 17.157575 2.001212 18.625465 -20.506444 0.000000 0.000001 -0.000001 -5.377046 -23.703596 -13.318984 0.000000 0.000000 0.000000 -42.422339 -33.040313 -48.437741 -9.159000 -21.147536 7.965491 -124.944869 37.141380 19.259142 18.604756 9.201155 -20.335708 9.366536 23.517111 3.907228 15.631115 30.652202 0.950006 0.000000 0.000003 0.000001 5.062913 7.259542 -60.393509 0.009020 -4.396039 -76.234740 -0.014932 1.943558 -28.702787 0.000002 0.000001 0.000003 -0.063979 4.758038 -60.986834 -0.080425 -4.896936 -84.974356 -0.077676 1.572472 -47.862697 0.000001 -0.000000 0.000001 -0.034409 -0.056987 -61.362297 -0.169936 -1.351956 -91.625376 -0.058890 1.209370 -28.344996 0.000001 -0.000000 -0.000004 0.640813 -4.012261 9.540074 0.000000 0.000000 0.000000 -11.078696 12.213166 3.421804 25.842335 9.919228 -0.269010 -54.429627 -72.753980 -32.007598 15.959784 -4.187800 29.032211 -14.791965 -41.235508 -16.515527 1.538931 -36.186510 -16.491854 -0.000002 -0.000000 0.000001 5.358210 -4.863572 67.585063 0.006275 4.394810 68.693425 -0.015224 -1.944180 51.003779 -0.000000 -0.000004 -0.000000 -0.076808 -4.752197 70.834908 -0.076425 4.897897 82.216367 -0.094639 -1.559164 59.800321 -0.000000 -0.000001 -0.000002 -1.164523 -6.475317 73.357495 -0.172070 1.351236 92.834381 -0.068397 -1.195408 42.966271 0.000000 -0.000002 -0.000002 54.302917 38.685505 1.112962 0.663733 21.984337 6.591293 5.528900 -6.405139 -46.656418 -47.425849 -8.296037 -10.185342 -0.000001 -0.000004 -0.000001 -90.941476 -5.522013 -4.354683 56.954571 1.045358 -7.721151 18.602097 7.869863 8.998257 -2.924230 2.984656 1.673498 0.000000 -0.000000 -0.000000 
